# xmcd CD database file
#
# Track frame offsets:
#	150
#	22882
#	51329
#	80508
#	102175
#	133643
#	154238
#	186262
#	207376
#	223778
#	250205
#	274937
#	293816
#	316991
#
# Disc length: 4552 seconds
#
# Revision: 0
# Processed by: cddbd v1.5.2PL0 Copyright (c) Steve Scherf et al.
# Submitted via: CDex 1.70beta2
#
DISCID=d111c60e
DTITLE=Varios - Jazz! 2
DYEAR=2007
DGENRE=Jazz
TTITLE0=Stanley Turrentine Vera Cruz
TTITLE1=Weldon Irvine Sindbad
TTITLE2=Weater Report Black Market
TTITLE3=The Brecker Brothers Stick Staff
TTITLE4=Deodorato Skyscrapers
TTITLE5=Maynard  Ferguson The Fly
TTITLE6=Lee Ritenour Captain Fingers
TTITLE7=Hank Crawford Sugar free
TTITLE8=Miles Davis It s About That Time
TTITLE9=The Neadhunters Silhouette
TTITLE10=Lonnie Liston Smith and Cosmic Echoes Astral Traveling
TTITLE11=Lalo Schifrin Blacl Widow
TTITLE12=Willie Bobo Alwais There
TTITLE13=The Averige White Band Walk Tall
EXTD=YEAR: 2007
EXTT0=
EXTT1=
EXTT2=
EXTT3=
EXTT4=
EXTT5=
EXTT6=
EXTT7=
EXTT8=
EXTT9=
EXTT10=
EXTT11=
EXTT12=
EXTT13=
PLAYORDER=
